<mxfile host="app.diagrams.net" agent="Mozilla/5.0 (Windows NT 10.0; Win64; x64) AppleWebKit/537.36 (KHTML, like Gecko) Chrome/128.0.0.0 YaBrowser/24.10.0.0 Safari/537.36" version="25.0.3">
  <diagram name="Страница — 1" id="rIWy80_l_jwphG7kssjN">
    <mxGraphModel dx="1762" dy="1751" grid="0" gridSize="10" guides="1" tooltips="1" connect="1" arrows="1" fold="1" page="0" pageScale="1" pageWidth="827" pageHeight="1169" math="0" shadow="0">
      <root>
        <mxCell id="0" />
        <mxCell id="1" parent="0" />
        <mxCell id="5TmrrSXH6zSi1DE6bjFB-13" style="edgeStyle=orthogonalEdgeStyle;rounded=0;orthogonalLoop=1;jettySize=auto;html=1;entryX=0;entryY=0.5;entryDx=0;entryDy=0;" edge="1" parent="1" source="5TmrrSXH6zSi1DE6bjFB-1" target="5TmrrSXH6zSi1DE6bjFB-3">
          <mxGeometry relative="1" as="geometry" />
        </mxCell>
        <mxCell id="5TmrrSXH6zSi1DE6bjFB-1" value="&lt;p style=&quot;margin:0px;margin-top:6px;text-align:center;&quot;&gt;&lt;b&gt;Frontend&lt;/b&gt;&lt;/p&gt;&lt;hr size=&quot;1&quot; style=&quot;border-style:solid;&quot;&gt;&lt;p style=&quot;margin:0px;margin-left:8px;&quot;&gt;+ Attribute1: Type&lt;br&gt;+ Attribute2: Type&lt;/p&gt;" style="align=left;overflow=fill;html=1;dropTarget=0;whiteSpace=wrap;" vertex="1" parent="1">
          <mxGeometry x="80" y="-450" width="160" height="200" as="geometry" />
        </mxCell>
        <mxCell id="5TmrrSXH6zSi1DE6bjFB-2" value="" style="shape=component;jettyWidth=8;jettyHeight=4;" vertex="1" parent="5TmrrSXH6zSi1DE6bjFB-1">
          <mxGeometry x="1" width="20" height="20" relative="1" as="geometry">
            <mxPoint x="-24" y="4" as="offset" />
          </mxGeometry>
        </mxCell>
        <mxCell id="5TmrrSXH6zSi1DE6bjFB-14" style="edgeStyle=orthogonalEdgeStyle;rounded=0;orthogonalLoop=1;jettySize=auto;html=1;entryX=0;entryY=0.5;entryDx=0;entryDy=0;" edge="1" parent="1" source="5TmrrSXH6zSi1DE6bjFB-3" target="5TmrrSXH6zSi1DE6bjFB-5">
          <mxGeometry relative="1" as="geometry" />
        </mxCell>
        <mxCell id="5TmrrSXH6zSi1DE6bjFB-15" style="edgeStyle=orthogonalEdgeStyle;rounded=0;orthogonalLoop=1;jettySize=auto;html=1;entryX=0;entryY=0.5;entryDx=0;entryDy=0;" edge="1" parent="1" source="5TmrrSXH6zSi1DE6bjFB-3" target="5TmrrSXH6zSi1DE6bjFB-7">
          <mxGeometry relative="1" as="geometry" />
        </mxCell>
        <mxCell id="5TmrrSXH6zSi1DE6bjFB-16" style="edgeStyle=orthogonalEdgeStyle;rounded=0;orthogonalLoop=1;jettySize=auto;html=1;exitX=0.5;exitY=1;exitDx=0;exitDy=0;entryX=0.5;entryY=0;entryDx=0;entryDy=0;" edge="1" parent="1" source="5TmrrSXH6zSi1DE6bjFB-3" target="5TmrrSXH6zSi1DE6bjFB-11">
          <mxGeometry relative="1" as="geometry" />
        </mxCell>
        <mxCell id="5TmrrSXH6zSi1DE6bjFB-17" style="edgeStyle=orthogonalEdgeStyle;rounded=0;orthogonalLoop=1;jettySize=auto;html=1;exitX=0.25;exitY=1;exitDx=0;exitDy=0;entryX=0.5;entryY=0;entryDx=0;entryDy=0;" edge="1" parent="1" source="5TmrrSXH6zSi1DE6bjFB-3" target="5TmrrSXH6zSi1DE6bjFB-9">
          <mxGeometry relative="1" as="geometry" />
        </mxCell>
        <mxCell id="5TmrrSXH6zSi1DE6bjFB-3" value="&lt;p style=&quot;margin:0px;margin-top:6px;text-align:center;&quot;&gt;&lt;b&gt;Backend&lt;/b&gt;&lt;/p&gt;&lt;hr size=&quot;1&quot; style=&quot;border-style:solid;&quot;&gt;&lt;p style=&quot;margin:0px;margin-left:8px;&quot;&gt;+ Attribute1: Type&lt;br&gt;+ Attribute2: Type&lt;/p&gt;" style="align=left;overflow=fill;html=1;dropTarget=0;whiteSpace=wrap;" vertex="1" parent="1">
          <mxGeometry x="350" y="-450" width="156.5" height="200" as="geometry" />
        </mxCell>
        <mxCell id="5TmrrSXH6zSi1DE6bjFB-4" value="" style="shape=component;jettyWidth=8;jettyHeight=4;" vertex="1" parent="5TmrrSXH6zSi1DE6bjFB-3">
          <mxGeometry x="1" width="20" height="20" relative="1" as="geometry">
            <mxPoint x="-24" y="4" as="offset" />
          </mxGeometry>
        </mxCell>
        <mxCell id="5TmrrSXH6zSi1DE6bjFB-5" value="&lt;p style=&quot;margin:0px;margin-top:6px;text-align:center;&quot;&gt;&lt;b&gt;База данных&lt;/b&gt;&lt;/p&gt;&lt;hr size=&quot;1&quot; style=&quot;border-style:solid;&quot;&gt;&lt;p style=&quot;margin:0px;margin-left:8px;&quot;&gt;+ Attribute1: Type&lt;br&gt;+ Attribute2: Type&lt;/p&gt;" style="align=left;overflow=fill;html=1;dropTarget=0;whiteSpace=wrap;" vertex="1" parent="1">
          <mxGeometry x="600" y="-450" width="160" height="200" as="geometry" />
        </mxCell>
        <mxCell id="5TmrrSXH6zSi1DE6bjFB-6" value="" style="shape=component;jettyWidth=8;jettyHeight=4;" vertex="1" parent="5TmrrSXH6zSi1DE6bjFB-5">
          <mxGeometry x="1" width="20" height="20" relative="1" as="geometry">
            <mxPoint x="-24" y="4" as="offset" />
          </mxGeometry>
        </mxCell>
        <mxCell id="5TmrrSXH6zSi1DE6bjFB-7" value="&lt;p style=&quot;margin:0px;margin-top:6px;text-align:center;&quot;&gt;&lt;b&gt;Платежный шлюз&lt;/b&gt;&lt;/p&gt;&lt;hr size=&quot;1&quot; style=&quot;border-style:solid;&quot;&gt;&lt;p style=&quot;margin:0px;margin-left:8px;&quot;&gt;+ Attribute1: Type&lt;br&gt;+ Attribute2: Type&lt;/p&gt;" style="align=left;overflow=fill;html=1;dropTarget=0;whiteSpace=wrap;" vertex="1" parent="1">
          <mxGeometry x="506.5" y="-710" width="160" height="200" as="geometry" />
        </mxCell>
        <mxCell id="5TmrrSXH6zSi1DE6bjFB-8" value="" style="shape=component;jettyWidth=8;jettyHeight=4;" vertex="1" parent="5TmrrSXH6zSi1DE6bjFB-7">
          <mxGeometry x="1" width="20" height="20" relative="1" as="geometry">
            <mxPoint x="-24" y="4" as="offset" />
          </mxGeometry>
        </mxCell>
        <mxCell id="5TmrrSXH6zSi1DE6bjFB-9" value="&lt;p style=&quot;margin:0px;margin-top:6px;text-align:center;&quot;&gt;&lt;b&gt;Модуль уведомлений&lt;/b&gt;&lt;/p&gt;&lt;hr size=&quot;1&quot; style=&quot;border-style:solid;&quot;&gt;&lt;p style=&quot;margin:0px;margin-left:8px;&quot;&gt;+ Attribute1: Type&lt;br&gt;+ Attribute2: Type&lt;/p&gt;" style="align=left;overflow=fill;html=1;dropTarget=0;whiteSpace=wrap;" vertex="1" parent="1">
          <mxGeometry x="80" y="-130" width="180" height="200" as="geometry" />
        </mxCell>
        <mxCell id="5TmrrSXH6zSi1DE6bjFB-10" value="" style="shape=component;jettyWidth=8;jettyHeight=4;" vertex="1" parent="5TmrrSXH6zSi1DE6bjFB-9">
          <mxGeometry x="1" width="20" height="20" relative="1" as="geometry">
            <mxPoint x="-24" y="4" as="offset" />
          </mxGeometry>
        </mxCell>
        <mxCell id="5TmrrSXH6zSi1DE6bjFB-11" value="&lt;p style=&quot;margin:0px;margin-top:6px;text-align:center;&quot;&gt;&lt;b&gt;Интеграция с рестораном&lt;/b&gt;&lt;/p&gt;&lt;hr size=&quot;1&quot; style=&quot;border-style:solid;&quot;&gt;&lt;p style=&quot;margin:0px;margin-left:8px;&quot;&gt;+ Attribute1: Type&lt;br&gt;+ Attribute2: Type&lt;/p&gt;" style="align=left;overflow=fill;html=1;dropTarget=0;whiteSpace=wrap;" vertex="1" parent="1">
          <mxGeometry x="468.5" y="-130" width="236" height="200" as="geometry" />
        </mxCell>
        <mxCell id="5TmrrSXH6zSi1DE6bjFB-12" value="" style="shape=component;jettyWidth=8;jettyHeight=4;" vertex="1" parent="5TmrrSXH6zSi1DE6bjFB-11">
          <mxGeometry x="1" width="20" height="20" relative="1" as="geometry">
            <mxPoint x="-24" y="4" as="offset" />
          </mxGeometry>
        </mxCell>
        <mxCell id="5TmrrSXH6zSi1DE6bjFB-18" value="REST API" style="text;html=1;align=center;verticalAlign=middle;resizable=0;points=[];autosize=1;strokeColor=none;fillColor=none;" vertex="1" parent="1">
          <mxGeometry x="250" y="-380" width="80" height="30" as="geometry" />
        </mxCell>
        <mxCell id="5TmrrSXH6zSi1DE6bjFB-19" value="SQL" style="text;html=1;align=center;verticalAlign=middle;resizable=0;points=[];autosize=1;strokeColor=none;fillColor=none;" vertex="1" parent="1">
          <mxGeometry x="521.5" y="-380" width="50" height="30" as="geometry" />
        </mxCell>
        <mxCell id="5TmrrSXH6zSi1DE6bjFB-20" value="WebSocket " style="text;html=1;align=center;verticalAlign=middle;resizable=0;points=[];autosize=1;strokeColor=none;fillColor=none;" vertex="1" parent="1">
          <mxGeometry x="468.5" y="-220" width="80" height="30" as="geometry" />
        </mxCell>
        <mxCell id="5TmrrSXH6zSi1DE6bjFB-21" value="Firebase" style="text;html=1;align=center;verticalAlign=middle;resizable=0;points=[];autosize=1;strokeColor=none;fillColor=none;" vertex="1" parent="1">
          <mxGeometry x="245" y="-220" width="70" height="30" as="geometry" />
        </mxCell>
        <mxCell id="5TmrrSXH6zSi1DE6bjFB-22" value="REST API/SDK" style="text;html=1;align=center;verticalAlign=middle;resizable=0;points=[];autosize=1;strokeColor=none;fillColor=none;" vertex="1" parent="1">
          <mxGeometry x="320" y="-550" width="110" height="30" as="geometry" />
        </mxCell>
        <mxCell id="5TmrrSXH6zSi1DE6bjFB-23" value="&lt;p style=&quot;margin:0px;margin-top:6px;text-align:center;&quot;&gt;&lt;b&gt;Пользователь&lt;/b&gt;&lt;/p&gt;&lt;hr size=&quot;1&quot; style=&quot;border-style:solid;&quot;&gt;&lt;p style=&quot;margin:0px;margin-left:8px;&quot;&gt;&lt;br&gt;&lt;/p&gt;" style="align=left;overflow=fill;html=1;dropTarget=0;whiteSpace=wrap;" vertex="1" parent="1">
          <mxGeometry x="140" y="450" width="160" height="200" as="geometry" />
        </mxCell>
        <mxCell id="5TmrrSXH6zSi1DE6bjFB-24" value="" style="shape=component;jettyWidth=8;jettyHeight=4;" vertex="1" parent="5TmrrSXH6zSi1DE6bjFB-23">
          <mxGeometry x="1" width="20" height="20" relative="1" as="geometry">
            <mxPoint x="-24" y="4" as="offset" />
          </mxGeometry>
        </mxCell>
        <mxCell id="5TmrrSXH6zSi1DE6bjFB-25" value="&lt;p style=&quot;margin:0px;margin-top:6px;text-align:center;&quot;&gt;&lt;b&gt;Система заказа еды&lt;/b&gt;&lt;/p&gt;&lt;hr size=&quot;1&quot; style=&quot;border-style:solid;&quot;&gt;&lt;p style=&quot;margin:0px;margin-left:8px;&quot;&gt;&lt;br&gt;&lt;/p&gt;" style="align=left;overflow=fill;html=1;dropTarget=0;whiteSpace=wrap;" vertex="1" parent="1">
          <mxGeometry x="408.5" y="450" width="181.5" height="200" as="geometry" />
        </mxCell>
        <mxCell id="5TmrrSXH6zSi1DE6bjFB-26" value="" style="shape=component;jettyWidth=8;jettyHeight=4;" vertex="1" parent="5TmrrSXH6zSi1DE6bjFB-25">
          <mxGeometry x="1" width="20" height="20" relative="1" as="geometry">
            <mxPoint x="-24" y="4" as="offset" />
          </mxGeometry>
        </mxCell>
        <mxCell id="5TmrrSXH6zSi1DE6bjFB-27" value="&lt;p style=&quot;margin:0px;margin-top:6px;text-align:center;&quot;&gt;&lt;b&gt;Платежная система&lt;/b&gt;&lt;/p&gt;&lt;hr size=&quot;1&quot; style=&quot;border-style:solid;&quot;&gt;&lt;p style=&quot;margin:0px;margin-left:8px;&quot;&gt;&lt;br&gt;&lt;/p&gt;" style="align=left;overflow=fill;html=1;dropTarget=0;whiteSpace=wrap;" vertex="1" parent="1">
          <mxGeometry x="700" y="450" width="181.5" height="200" as="geometry" />
        </mxCell>
        <mxCell id="5TmrrSXH6zSi1DE6bjFB-28" value="" style="shape=component;jettyWidth=8;jettyHeight=4;" vertex="1" parent="5TmrrSXH6zSi1DE6bjFB-27">
          <mxGeometry x="1" width="20" height="20" relative="1" as="geometry">
            <mxPoint x="-24" y="4" as="offset" />
          </mxGeometry>
        </mxCell>
        <mxCell id="5TmrrSXH6zSi1DE6bjFB-29" value="&lt;p style=&quot;margin:0px;margin-top:6px;text-align:center;&quot;&gt;&lt;b&gt;&amp;nbsp;Банк&lt;/b&gt;&lt;/p&gt;&lt;hr size=&quot;1&quot; style=&quot;border-style:solid;&quot;&gt;&lt;p style=&quot;margin:0px;margin-left:8px;&quot;&gt;&lt;br&gt;&lt;/p&gt;" style="align=left;overflow=fill;html=1;dropTarget=0;whiteSpace=wrap;" vertex="1" parent="1">
          <mxGeometry x="980" y="450" width="181.5" height="200" as="geometry" />
        </mxCell>
        <mxCell id="5TmrrSXH6zSi1DE6bjFB-30" value="" style="shape=component;jettyWidth=8;jettyHeight=4;" vertex="1" parent="5TmrrSXH6zSi1DE6bjFB-29">
          <mxGeometry x="1" width="20" height="20" relative="1" as="geometry">
            <mxPoint x="-24" y="4" as="offset" />
          </mxGeometry>
        </mxCell>
        <mxCell id="5TmrrSXH6zSi1DE6bjFB-39" value="&lt;font style=&quot;font-size: 9px;&quot;&gt;Модуль авторизации пользователя&lt;/font&gt;" style="shape=module;align=left;spacingLeft=20;align=center;verticalAlign=top;whiteSpace=wrap;html=1;" vertex="1" parent="1">
          <mxGeometry x="160.04" y="490" width="120" height="40" as="geometry" />
        </mxCell>
        <mxCell id="5TmrrSXH6zSi1DE6bjFB-40" value="&lt;font style=&quot;font-size: 9px;&quot;&gt;Модуль обработки заказа&lt;/font&gt;" style="shape=module;align=left;spacingLeft=20;align=center;verticalAlign=top;whiteSpace=wrap;html=1;" vertex="1" parent="1">
          <mxGeometry x="445.11" y="505" width="120" height="40" as="geometry" />
        </mxCell>
        <mxCell id="5TmrrSXH6zSi1DE6bjFB-42" value="" style="verticalAlign=top;align=left;spacingTop=8;spacingLeft=2;spacingRight=12;shape=cube;size=10;direction=south;fontStyle=4;html=1;whiteSpace=wrap;" vertex="1" parent="1">
          <mxGeometry x="110" y="1530" width="395" height="260" as="geometry" />
        </mxCell>
        <mxCell id="5TmrrSXH6zSi1DE6bjFB-43" value="" style="verticalAlign=top;align=left;spacingTop=8;spacingLeft=2;spacingRight=12;shape=cube;size=10;direction=south;fontStyle=4;html=1;whiteSpace=wrap;" vertex="1" parent="1">
          <mxGeometry x="160.04" y="1595" width="293.46" height="180" as="geometry" />
        </mxCell>
        <mxCell id="5TmrrSXH6zSi1DE6bjFB-44" value="" style="verticalAlign=top;align=left;spacingTop=8;spacingLeft=2;spacingRight=12;shape=cube;size=10;direction=south;fontStyle=4;html=1;whiteSpace=wrap;" vertex="1" parent="1">
          <mxGeometry x="803.5" y="1530" width="395" height="260" as="geometry" />
        </mxCell>
        <mxCell id="5TmrrSXH6zSi1DE6bjFB-45" value="" style="verticalAlign=top;align=left;spacingTop=8;spacingLeft=2;spacingRight=12;shape=cube;size=10;direction=south;fontStyle=4;html=1;whiteSpace=wrap;" vertex="1" parent="1">
          <mxGeometry x="843.88" y="1580" width="314.23" height="195" as="geometry" />
        </mxCell>
        <mxCell id="5TmrrSXH6zSi1DE6bjFB-46" value="" style="verticalAlign=top;align=left;spacingTop=8;spacingLeft=2;spacingRight=12;shape=cube;size=10;direction=south;fontStyle=4;html=1;whiteSpace=wrap;" vertex="1" parent="1">
          <mxGeometry x="323.5" y="1870" width="640.23" height="420" as="geometry" />
        </mxCell>
        <mxCell id="5TmrrSXH6zSi1DE6bjFB-47" value="" style="verticalAlign=top;align=left;spacingTop=8;spacingLeft=2;spacingRight=12;shape=cube;size=10;direction=south;fontStyle=4;html=1;whiteSpace=wrap;" vertex="1" parent="1">
          <mxGeometry x="373.5" y="1930" width="520" height="340" as="geometry" />
        </mxCell>
        <mxCell id="5TmrrSXH6zSi1DE6bjFB-48" value="" style="verticalAlign=top;align=left;spacingTop=8;spacingLeft=2;spacingRight=12;shape=cube;size=10;direction=south;fontStyle=4;html=1;whiteSpace=wrap;" vertex="1" parent="1">
          <mxGeometry x="433.5" y="1990" width="383.46" height="250" as="geometry" />
        </mxCell>
        <mxCell id="5TmrrSXH6zSi1DE6bjFB-50" value="«artifacts»&lt;br&gt;&lt;b&gt;HTML,CSS,JS&lt;/b&gt;" style="html=1;whiteSpace=wrap;" vertex="1" parent="1">
          <mxGeometry x="252.5" y="1690" width="110" height="50" as="geometry" />
        </mxCell>
        <mxCell id="5TmrrSXH6zSi1DE6bjFB-51" value="«schema»&lt;br&gt;&lt;b&gt;Clients&lt;/b&gt;" style="html=1;whiteSpace=wrap;" vertex="1" parent="1">
          <mxGeometry x="873.5" y="1650" width="110" height="50" as="geometry" />
        </mxCell>
        <mxCell id="5TmrrSXH6zSi1DE6bjFB-52" value="«schema»&lt;br&gt;&lt;b&gt;Orders&lt;/b&gt;" style="html=1;whiteSpace=wrap;" vertex="1" parent="1">
          <mxGeometry x="873.5" y="1710" width="110" height="50" as="geometry" />
        </mxCell>
        <mxCell id="5TmrrSXH6zSi1DE6bjFB-53" value="«schema»&lt;br&gt;&lt;b&gt;Knowledge base&lt;/b&gt;" style="html=1;whiteSpace=wrap;" vertex="1" parent="1">
          <mxGeometry x="1023.5" y="1650" width="110" height="50" as="geometry" />
        </mxCell>
        <mxCell id="5TmrrSXH6zSi1DE6bjFB-54" value="«schema»&lt;br&gt;&lt;b&gt;Operators&lt;/b&gt;" style="html=1;whiteSpace=wrap;" vertex="1" parent="1">
          <mxGeometry x="1023.5" y="1710" width="110" height="50" as="geometry" />
        </mxCell>
        <mxCell id="5TmrrSXH6zSi1DE6bjFB-55" value="&lt;u&gt;&lt;b&gt;&amp;lt;&amp;lt;device&amp;gt;&amp;gt;&lt;/b&gt;&lt;/u&gt;&lt;div&gt;&lt;u&gt;&lt;b&gt;Client device&lt;/b&gt;&lt;/u&gt;&lt;/div&gt;" style="text;html=1;align=center;verticalAlign=middle;whiteSpace=wrap;rounded=0;" vertex="1" parent="1">
          <mxGeometry x="264" y="1555" width="87" height="30" as="geometry" />
        </mxCell>
        <mxCell id="5TmrrSXH6zSi1DE6bjFB-56" value="&lt;u&gt;&lt;b&gt;&amp;lt;&amp;lt;device&amp;gt;&amp;gt;&lt;/b&gt;&lt;/u&gt;&lt;div&gt;&lt;b&gt;&lt;u&gt;Server&lt;/u&gt;&lt;/b&gt;&lt;/div&gt;" style="text;html=1;align=center;verticalAlign=middle;whiteSpace=wrap;rounded=0;" vertex="1" parent="1">
          <mxGeometry x="960.5" y="1546" width="87" height="30" as="geometry" />
        </mxCell>
        <mxCell id="5TmrrSXH6zSi1DE6bjFB-57" value="&lt;u&gt;&lt;b&gt;&amp;lt;&amp;lt;device&amp;gt;&amp;gt;&lt;/b&gt;&lt;/u&gt;&lt;div&gt;&lt;b&gt;&lt;u&gt;Server&lt;/u&gt;&lt;/b&gt;&lt;/div&gt;" style="text;html=1;align=center;verticalAlign=middle;whiteSpace=wrap;rounded=0;" vertex="1" parent="1">
          <mxGeometry x="583.5" y="1890" width="87" height="30" as="geometry" />
        </mxCell>
        <mxCell id="5TmrrSXH6zSi1DE6bjFB-58" value="&lt;u&gt;&lt;b&gt;&amp;lt;&amp;lt;env&amp;gt;&amp;gt;&lt;/b&gt;&lt;/u&gt;&lt;div&gt;&lt;b&gt;&lt;u&gt;Web browser, Mobile/Desctop app&lt;/u&gt;&lt;/b&gt;&lt;/div&gt;" style="text;html=1;align=center;verticalAlign=middle;whiteSpace=wrap;rounded=0;" vertex="1" parent="1">
          <mxGeometry x="247.39" y="1616" width="120.23" height="30" as="geometry" />
        </mxCell>
        <mxCell id="5TmrrSXH6zSi1DE6bjFB-59" value="&lt;u&gt;&lt;b&gt;&amp;lt;&amp;lt;db system&amp;gt;&amp;gt;&lt;/b&gt;&lt;/u&gt;&lt;div&gt;&lt;b&gt;&lt;u&gt;Postgres&lt;/u&gt;&lt;/b&gt;&lt;/div&gt;" style="text;html=1;align=center;verticalAlign=middle;whiteSpace=wrap;rounded=0;" vertex="1" parent="1">
          <mxGeometry x="954.11" y="1595" width="99.77" height="30" as="geometry" />
        </mxCell>
        <mxCell id="5TmrrSXH6zSi1DE6bjFB-60" value="&lt;u&gt;&lt;b&gt;&amp;lt;&amp;lt;env&amp;gt;&amp;gt;&lt;/b&gt;&lt;/u&gt;&lt;div&gt;&lt;b&gt;&lt;u&gt;Ubuntu Server&lt;/u&gt;&lt;/b&gt;&lt;/div&gt;" style="text;html=1;align=center;verticalAlign=middle;whiteSpace=wrap;rounded=0;" vertex="1" parent="1">
          <mxGeometry x="565.11" y="1950" width="120.23" height="30" as="geometry" />
        </mxCell>
        <mxCell id="5TmrrSXH6zSi1DE6bjFB-61" value="&lt;u&gt;&lt;b&gt;&amp;lt;&amp;lt;exec env&amp;gt;&amp;gt;&lt;/b&gt;&lt;/u&gt;&lt;div&gt;&lt;b&gt;&lt;u&gt;Docker, FastAPI, SQLAlchemy&lt;/u&gt;&lt;/b&gt;&lt;/div&gt;" style="text;html=1;align=center;verticalAlign=middle;whiteSpace=wrap;rounded=0;" vertex="1" parent="1">
          <mxGeometry x="536.03" y="2010" width="178.39" height="30" as="geometry" />
        </mxCell>
        <mxCell id="5TmrrSXH6zSi1DE6bjFB-62" value="" style="endArrow=none;html=1;rounded=0;entryX=1.004;entryY=0.682;entryDx=0;entryDy=0;entryPerimeter=0;exitX=0;exitY=0;exitDx=215;exitDy=640.23;exitPerimeter=0;" edge="1" parent="1" source="5TmrrSXH6zSi1DE6bjFB-46" target="5TmrrSXH6zSi1DE6bjFB-42">
          <mxGeometry width="50" height="50" relative="1" as="geometry">
            <mxPoint x="153.5" y="1960" as="sourcePoint" />
            <mxPoint x="203.5" y="1910" as="targetPoint" />
            <Array as="points">
              <mxPoint x="235.5" y="2085" />
            </Array>
          </mxGeometry>
        </mxCell>
        <mxCell id="5TmrrSXH6zSi1DE6bjFB-63" value="HTTPS" style="text;html=1;align=center;verticalAlign=middle;whiteSpace=wrap;rounded=0;" vertex="1" parent="1">
          <mxGeometry x="252.5" y="2060" width="60" height="30" as="geometry" />
        </mxCell>
        <mxCell id="5TmrrSXH6zSi1DE6bjFB-65" value="«artifacts»&lt;br&gt;&lt;b&gt;app.py&lt;/b&gt;" style="html=1;whiteSpace=wrap;" vertex="1" parent="1">
          <mxGeometry x="445" y="2060" width="110" height="50" as="geometry" />
        </mxCell>
        <mxCell id="5TmrrSXH6zSi1DE6bjFB-69" style="edgeStyle=orthogonalEdgeStyle;rounded=0;orthogonalLoop=1;jettySize=auto;html=1;entryX=1;entryY=0.5;entryDx=0;entryDy=0;dashed=1;" edge="1" parent="1" source="5TmrrSXH6zSi1DE6bjFB-66" target="5TmrrSXH6zSi1DE6bjFB-65">
          <mxGeometry relative="1" as="geometry" />
        </mxCell>
        <mxCell id="5TmrrSXH6zSi1DE6bjFB-66" value="«deployment spec»&lt;br&gt;&lt;b&gt;web.xml&lt;/b&gt;" style="html=1;whiteSpace=wrap;" vertex="1" parent="1">
          <mxGeometry x="650" y="2060" width="110" height="50" as="geometry" />
        </mxCell>
        <mxCell id="5TmrrSXH6zSi1DE6bjFB-70" style="edgeStyle=orthogonalEdgeStyle;rounded=0;orthogonalLoop=1;jettySize=auto;html=1;entryX=0.25;entryY=1;entryDx=0;entryDy=0;" edge="1" parent="1" source="5TmrrSXH6zSi1DE6bjFB-67" target="5TmrrSXH6zSi1DE6bjFB-65">
          <mxGeometry relative="1" as="geometry">
            <Array as="points">
              <mxPoint x="472.5" y="2145" />
            </Array>
          </mxGeometry>
        </mxCell>
        <mxCell id="5TmrrSXH6zSi1DE6bjFB-67" value="«artifact»&lt;br&gt;&lt;b&gt;db_connector.py&lt;/b&gt;" style="html=1;whiteSpace=wrap;" vertex="1" parent="1">
          <mxGeometry x="650" y="2120" width="110" height="50" as="geometry" />
        </mxCell>
        <mxCell id="5TmrrSXH6zSi1DE6bjFB-71" style="edgeStyle=orthogonalEdgeStyle;rounded=0;orthogonalLoop=1;jettySize=auto;html=1;entryX=0.25;entryY=1;entryDx=0;entryDy=0;" edge="1" parent="1" source="5TmrrSXH6zSi1DE6bjFB-68" target="5TmrrSXH6zSi1DE6bjFB-65">
          <mxGeometry relative="1" as="geometry" />
        </mxCell>
        <mxCell id="5TmrrSXH6zSi1DE6bjFB-68" value="«artifact»&lt;div&gt;&lt;b&gt;order.py&lt;/b&gt;&lt;/div&gt;" style="html=1;whiteSpace=wrap;" vertex="1" parent="1">
          <mxGeometry x="650" y="2180" width="110" height="50" as="geometry" />
        </mxCell>
        <mxCell id="5TmrrSXH6zSi1DE6bjFB-72" value="" style="endArrow=none;html=1;rounded=0;entryX=1.004;entryY=0.235;entryDx=0;entryDy=0;entryPerimeter=0;exitX=0.51;exitY=0.002;exitDx=0;exitDy=0;exitPerimeter=0;" edge="1" parent="1" source="5TmrrSXH6zSi1DE6bjFB-46" target="5TmrrSXH6zSi1DE6bjFB-44">
          <mxGeometry width="50" height="50" relative="1" as="geometry">
            <mxPoint x="1063.5" y="2000" as="sourcePoint" />
            <mxPoint x="1113.5" y="1950" as="targetPoint" />
            <Array as="points">
              <mxPoint x="1105.5" y="2084" />
            </Array>
          </mxGeometry>
        </mxCell>
        <mxCell id="5TmrrSXH6zSi1DE6bjFB-73" value="TCP/IP" style="text;html=1;align=center;verticalAlign=middle;whiteSpace=wrap;rounded=0;" vertex="1" parent="1">
          <mxGeometry x="1003.5" y="2060" width="60" height="30" as="geometry" />
        </mxCell>
        <mxCell id="5TmrrSXH6zSi1DE6bjFB-75" value="&lt;font size=&quot;1&quot;&gt;&lt;span style=&quot;font-weight: 400;&quot;&gt;Модуль просмотра меню&lt;/span&gt;&lt;/font&gt;" style="shape=module;align=left;spacingLeft=20;align=center;verticalAlign=top;whiteSpace=wrap;html=1;fontStyle=1" vertex="1" parent="1">
          <mxGeometry x="160" y="540" width="120" height="40" as="geometry" />
        </mxCell>
        <mxCell id="5TmrrSXH6zSi1DE6bjFB-76" value="&lt;font style=&quot;font-size: 9px;&quot;&gt;Модуль корзины&lt;/font&gt;" style="shape=module;align=left;spacingLeft=20;align=center;verticalAlign=top;whiteSpace=wrap;html=1;" vertex="1" parent="1">
          <mxGeometry x="160.04" y="590" width="120" height="40" as="geometry" />
        </mxCell>
        <mxCell id="5TmrrSXH6zSi1DE6bjFB-78" value="&lt;font style=&quot;font-size: 9px;&quot;&gt;Модуль уведомлений&lt;/font&gt;" style="shape=module;align=left;spacingLeft=20;align=center;verticalAlign=top;whiteSpace=wrap;html=1;" vertex="1" parent="1">
          <mxGeometry x="445" y="580" width="120" height="40" as="geometry" />
        </mxCell>
        <mxCell id="5TmrrSXH6zSi1DE6bjFB-79" value="&lt;font style=&quot;font-size: 9px;&quot;&gt;Модуль обработки платежных данных&lt;/font&gt;" style="shape=module;align=left;spacingLeft=20;align=center;verticalAlign=top;whiteSpace=wrap;html=1;" vertex="1" parent="1">
          <mxGeometry x="730.75" y="490" width="120" height="40" as="geometry" />
        </mxCell>
        <mxCell id="5TmrrSXH6zSi1DE6bjFB-80" value="&lt;font style=&quot;font-size: 9px;&quot;&gt;Модуль безопасности данных&lt;/font&gt;" style="shape=module;align=left;spacingLeft=20;align=center;verticalAlign=top;whiteSpace=wrap;html=1;" vertex="1" parent="1">
          <mxGeometry x="730.75" y="565" width="120" height="40" as="geometry" />
        </mxCell>
        <mxCell id="5TmrrSXH6zSi1DE6bjFB-81" value="&lt;font style=&quot;font-size: 9px;&quot;&gt;Модуль верификации транзакций&lt;/font&gt;" style="shape=module;align=left;spacingLeft=20;align=center;verticalAlign=top;whiteSpace=wrap;html=1;" vertex="1" parent="1">
          <mxGeometry x="1013.5" y="490" width="120" height="40" as="geometry" />
        </mxCell>
        <mxCell id="5TmrrSXH6zSi1DE6bjFB-82" value="&lt;font style=&quot;font-size: 9px;&quot;&gt;Модуль уведомления&lt;/font&gt;" style="shape=module;align=left;spacingLeft=20;align=center;verticalAlign=top;whiteSpace=wrap;html=1;" vertex="1" parent="1">
          <mxGeometry x="1018.5" y="565" width="120" height="40" as="geometry" />
        </mxCell>
        <mxCell id="5TmrrSXH6zSi1DE6bjFB-85" value="" style="group" vertex="1" connectable="0" parent="1">
          <mxGeometry x="600" y="190" width="181.5" height="200" as="geometry" />
        </mxCell>
        <mxCell id="5TmrrSXH6zSi1DE6bjFB-34" value="&lt;p style=&quot;margin:0px;margin-top:6px;text-align:center;&quot;&gt;&lt;b&gt;&amp;nbsp;База данных&lt;/b&gt;&lt;/p&gt;&lt;hr size=&quot;1&quot; style=&quot;border-style:solid;&quot;&gt;&lt;p style=&quot;margin:0px;margin-left:8px;&quot;&gt;&lt;br&gt;&lt;/p&gt;" style="align=left;overflow=fill;html=1;dropTarget=0;whiteSpace=wrap;" vertex="1" parent="5TmrrSXH6zSi1DE6bjFB-85">
          <mxGeometry width="181.5" height="200" as="geometry" />
        </mxCell>
        <mxCell id="5TmrrSXH6zSi1DE6bjFB-35" value="" style="shape=component;jettyWidth=8;jettyHeight=4;" vertex="1" parent="5TmrrSXH6zSi1DE6bjFB-34">
          <mxGeometry x="1" width="20" height="20" relative="1" as="geometry">
            <mxPoint x="-24" y="4" as="offset" />
          </mxGeometry>
        </mxCell>
        <mxCell id="5TmrrSXH6zSi1DE6bjFB-74" value="&lt;font style=&quot;font-size: 9px;&quot;&gt;Модуль хранения данных&amp;nbsp;&lt;/font&gt;" style="shape=module;align=left;spacingLeft=20;align=center;verticalAlign=top;whiteSpace=wrap;html=1;" vertex="1" parent="5TmrrSXH6zSi1DE6bjFB-85">
          <mxGeometry x="30.75" y="40" width="120" height="40" as="geometry" />
        </mxCell>
        <mxCell id="5TmrrSXH6zSi1DE6bjFB-89" value="&lt;strong&gt;ISO 8583&lt;/strong&gt;" style="text;html=1;align=center;verticalAlign=middle;whiteSpace=wrap;rounded=0;" vertex="1" parent="1">
          <mxGeometry x="903.73" y="520" width="60" height="30" as="geometry" />
        </mxCell>
        <mxCell id="5TmrrSXH6zSi1DE6bjFB-90" value="&lt;strong&gt;API&lt;/strong&gt;" style="text;html=1;align=center;verticalAlign=middle;whiteSpace=wrap;rounded=0;" vertex="1" parent="1">
          <mxGeometry x="610.5" y="520" width="60" height="30" as="geometry" />
        </mxCell>
        <mxCell id="5TmrrSXH6zSi1DE6bjFB-91" value="&lt;strong&gt;API&lt;/strong&gt;" style="text;html=1;align=center;verticalAlign=middle;whiteSpace=wrap;rounded=0;" vertex="1" parent="1">
          <mxGeometry x="320" y="520" width="60" height="30" as="geometry" />
        </mxCell>
        <mxCell id="5TmrrSXH6zSi1DE6bjFB-92" value="&lt;strong&gt;API&lt;/strong&gt;" style="text;html=1;align=center;verticalAlign=middle;whiteSpace=wrap;rounded=0;" vertex="1" parent="1">
          <mxGeometry x="491" y="369" width="60" height="30" as="geometry" />
        </mxCell>
        <mxCell id="5TmrrSXH6zSi1DE6bjFB-93" value="" style="rounded=0;orthogonalLoop=1;jettySize=auto;html=1;endArrow=halfCircle;endFill=0;endSize=6;strokeWidth=1;sketch=0;exitX=0;exitY=0.5;exitDx=0;exitDy=0;" edge="1" parent="1" source="5TmrrSXH6zSi1DE6bjFB-25">
          <mxGeometry relative="1" as="geometry">
            <mxPoint x="374" y="564" as="sourcePoint" />
            <mxPoint x="354" y="550" as="targetPoint" />
          </mxGeometry>
        </mxCell>
        <mxCell id="5TmrrSXH6zSi1DE6bjFB-94" value="" style="rounded=0;orthogonalLoop=1;jettySize=auto;html=1;endArrow=oval;endFill=0;sketch=0;sourcePerimeterSpacing=0;targetPerimeterSpacing=0;endSize=10;exitX=1;exitY=0.5;exitDx=0;exitDy=0;entryX=0.5;entryY=1;entryDx=0;entryDy=0;" edge="1" target="5TmrrSXH6zSi1DE6bjFB-91" parent="1" source="5TmrrSXH6zSi1DE6bjFB-23">
          <mxGeometry relative="1" as="geometry">
            <mxPoint x="334" y="564" as="sourcePoint" />
          </mxGeometry>
        </mxCell>
        <mxCell id="5TmrrSXH6zSi1DE6bjFB-95" value="" style="ellipse;whiteSpace=wrap;html=1;align=center;aspect=fixed;fillColor=none;strokeColor=none;resizable=0;perimeter=centerPerimeter;rotatable=0;allowArrows=0;points=[];outlineConnect=1;" vertex="1" parent="1">
          <mxGeometry x="349" y="559" width="10" height="10" as="geometry" />
        </mxCell>
        <mxCell id="5TmrrSXH6zSi1DE6bjFB-96" value="" style="rounded=0;orthogonalLoop=1;jettySize=auto;html=1;endArrow=halfCircle;endFill=0;endSize=6;strokeWidth=1;sketch=0;exitX=0;exitY=0.5;exitDx=0;exitDy=0;" edge="1" target="5TmrrSXH6zSi1DE6bjFB-98" parent="1" source="5TmrrSXH6zSi1DE6bjFB-27">
          <mxGeometry relative="1" as="geometry">
            <mxPoint x="660.5" y="550" as="sourcePoint" />
          </mxGeometry>
        </mxCell>
        <mxCell id="5TmrrSXH6zSi1DE6bjFB-97" value="" style="rounded=0;orthogonalLoop=1;jettySize=auto;html=1;endArrow=oval;endFill=0;sketch=0;sourcePerimeterSpacing=0;targetPerimeterSpacing=0;endSize=10;entryX=0.334;entryY=0.608;entryDx=0;entryDy=0;entryPerimeter=0;exitX=1;exitY=0.5;exitDx=0;exitDy=0;" edge="1" target="5TmrrSXH6zSi1DE6bjFB-98" parent="1" source="5TmrrSXH6zSi1DE6bjFB-25">
          <mxGeometry relative="1" as="geometry">
            <mxPoint x="620.5" y="550" as="sourcePoint" />
          </mxGeometry>
        </mxCell>
        <mxCell id="5TmrrSXH6zSi1DE6bjFB-98" value="" style="ellipse;whiteSpace=wrap;html=1;align=center;aspect=fixed;fillColor=none;strokeColor=none;resizable=0;perimeter=centerPerimeter;rotatable=0;allowArrows=0;points=[];outlineConnect=1;" vertex="1" parent="1">
          <mxGeometry x="635.5" y="545" width="10" height="10" as="geometry" />
        </mxCell>
        <mxCell id="5TmrrSXH6zSi1DE6bjFB-99" value="" style="rounded=0;orthogonalLoop=1;jettySize=auto;html=1;endArrow=halfCircle;endFill=0;endSize=6;strokeWidth=1;sketch=0;" edge="1" parent="1" target="5TmrrSXH6zSi1DE6bjFB-101">
          <mxGeometry relative="1" as="geometry">
            <mxPoint x="980" y="554" as="sourcePoint" />
          </mxGeometry>
        </mxCell>
        <mxCell id="5TmrrSXH6zSi1DE6bjFB-100" value="" style="rounded=0;orthogonalLoop=1;jettySize=auto;html=1;endArrow=oval;endFill=0;sketch=0;sourcePerimeterSpacing=0;targetPerimeterSpacing=0;endSize=10;entryX=0.334;entryY=0.608;entryDx=0;entryDy=0;entryPerimeter=0;exitX=1;exitY=0.5;exitDx=0;exitDy=0;" edge="1" parent="1" target="5TmrrSXH6zSi1DE6bjFB-101">
          <mxGeometry relative="1" as="geometry">
            <mxPoint x="881.5" y="554" as="sourcePoint" />
          </mxGeometry>
        </mxCell>
        <mxCell id="5TmrrSXH6zSi1DE6bjFB-101" value="" style="ellipse;whiteSpace=wrap;html=1;align=center;aspect=fixed;fillColor=none;strokeColor=none;resizable=0;perimeter=centerPerimeter;rotatable=0;allowArrows=0;points=[];outlineConnect=1;" vertex="1" parent="1">
          <mxGeometry x="927" y="549" width="10" height="10" as="geometry" />
        </mxCell>
        <mxCell id="5TmrrSXH6zSi1DE6bjFB-102" value="" style="rounded=0;orthogonalLoop=1;jettySize=auto;html=1;endArrow=halfCircle;endFill=0;endSize=6;strokeWidth=1;sketch=0;exitX=0;exitY=0.5;exitDx=0;exitDy=0;" edge="1" parent="1" source="5TmrrSXH6zSi1DE6bjFB-34">
          <mxGeometry relative="1" as="geometry">
            <mxPoint x="588" y="426" as="sourcePoint" />
            <mxPoint x="525" y="409" as="targetPoint" />
          </mxGeometry>
        </mxCell>
        <mxCell id="5TmrrSXH6zSi1DE6bjFB-103" value="" style="rounded=0;orthogonalLoop=1;jettySize=auto;html=1;endArrow=oval;endFill=0;sketch=0;sourcePerimeterSpacing=0;targetPerimeterSpacing=0;endSize=10;exitX=0.5;exitY=0;exitDx=0;exitDy=0;" edge="1" parent="1" source="5TmrrSXH6zSi1DE6bjFB-25">
          <mxGeometry relative="1" as="geometry">
            <mxPoint x="478" y="426" as="sourcePoint" />
            <mxPoint x="524" y="411" as="targetPoint" />
          </mxGeometry>
        </mxCell>
        <mxCell id="5TmrrSXH6zSi1DE6bjFB-104" value="" style="ellipse;whiteSpace=wrap;html=1;align=center;aspect=fixed;fillColor=none;strokeColor=none;resizable=0;perimeter=centerPerimeter;rotatable=0;allowArrows=0;points=[];outlineConnect=1;" vertex="1" parent="1">
          <mxGeometry x="523.5" y="421" width="10" height="10" as="geometry" />
        </mxCell>
      </root>
    </mxGraphModel>
  </diagram>
</mxfile>
